<?xml version="1.0" encoding="UTF-8" standalone="no"?>
<!-- Created with Inkscape (http://www.inkscape.org/) -->

<svg
   xmlns:dc="http://purl.org/dc/elements/1.1/"
   xmlns:cc="http://creativecommons.org/ns#"
   xmlns:rdf="http://www.w3.org/1999/02/22-rdf-syntax-ns#"
   xmlns:svg="http://www.w3.org/2000/svg"
   xmlns="http://www.w3.org/2000/svg"
   xmlns:sodipodi="http://sodipodi.sourceforge.net/DTD/sodipodi-0.dtd"
   xmlns:inkscape="http://www.inkscape.org/namespaces/inkscape"
   width="89.040291mm"
   height="72.885994mm"
   viewBox="0 0 89.040297 72.885994"
   version="1.1"
   id="svg8"
   inkscape:version="0.92.1 r15371"
   sodipodi:docname="MILK.svg">
  <defs
     id="defs2">
    <marker
       inkscape:stockid="Arrow1Lend"
       orient="auto"
       refY="0"
       refX="0"
       id="Arrow1Lend"
       style="overflow:visible"
       inkscape:isstock="true">
      <path
         id="path5190"
         d="M 0,0 5,-5 -12.5,0 5,5 Z"
         style="fill:#000000;fill-opacity:1;fill-rule:evenodd;stroke:#000000;stroke-width:1.00000003pt;stroke-opacity:1"
         transform="matrix(-0.8,0,0,-0.8,-10,0)"
         inkscape:connector-curvature="0" />
    </marker>
    <clipPath
       clipPathUnits="userSpaceOnUse"
       id="clipPath237">
      <rect
         id="rect239"
         width="110.44339"
         height="49.164902"
         x="4.6112132"
         y="22.95932"
         style="stroke-width:0.25220501" />
    </clipPath>
    <clipPath
       clipPathUnits="userSpaceOnUse"
       id="clipPath4892">
      <rect
         style="fill:#ffffff;fill-opacity:1;stroke-width:0.99999994"
         id="rect4894"
         width="422.85715"
         height="91.428574"
         x="182.84793"
         y="56.270374" />
    </clipPath>
    <clipPath
       clipPathUnits="userSpaceOnUse"
       id="clipPath4902">
      <rect
         style="fill:#ffffff;fill-opacity:1;stroke-width:0.26251623"
         id="rect4904"
         width="90.60437"
         height="33.809593"
         x="7.4175434"
         y="36.990971" />
    </clipPath>
  </defs>
  <sodipodi:namedview
     id="base"
     pagecolor="#ffffff"
     bordercolor="#666666"
     borderopacity="1.0"
     inkscape:pageopacity="0.0"
     inkscape:pageshadow="2"
     inkscape:zoom="0.98994949"
     inkscape:cx="208.7414"
     inkscape:cy="233.4915"
     inkscape:document-units="mm"
     inkscape:current-layer="layer1"
     showgrid="false"
     showguides="false"
     fit-margin-top="0"
     fit-margin-left="0"
     fit-margin-right="0"
     fit-margin-bottom="0"
     inkscape:window-width="1855"
     inkscape:window-height="1056"
     inkscape:window-x="65"
     inkscape:window-y="24"
     inkscape:window-maximized="1"
     inkscape:measure-start="0,0"
     inkscape:measure-end="0,0" />
  <metadata
     id="metadata5">
    <rdf:RDF>
      <cc:Work
         rdf:about="">
        <dc:format>image/svg+xml</dc:format>
        <dc:type
           rdf:resource="http://purl.org/dc/dcmitype/StillImage" />
        <dc:title></dc:title>
      </cc:Work>
    </rdf:RDF>
  </metadata>
  <g
     inkscape:label="Layer 1"
     inkscape:groupmode="layer"
     id="layer1"
     transform="translate(-130.46476,3.4217732)">
    <text
       xml:space="preserve"
       style="font-style:normal;font-weight:normal;font-size:10.58333302px;line-height:1.25;font-family:sans-serif;letter-spacing:0px;word-spacing:0px;fill:#000000;fill-opacity:1;stroke:none;stroke-width:0.26458332"
       x="43.56493"
       y="84.11982"
       id="text126"><tspan
         sodipodi:role="line"
         id="tspan124"
         x="43.56493"
         y="93.483589"
         style="stroke-width:0.26458332" /></text>
    <flowRoot
       xml:space="preserve"
       id="flowRoot128"
       style="font-style:normal;font-weight:normal;font-size:13.33333302px;line-height:1.25;font-family:sans-serif;text-align:center;letter-spacing:0px;word-spacing:0px;text-anchor:middle;fill:#000000;fill-opacity:1;stroke:none"
       transform="matrix(0.26458333,0,0,0.26458333,54.255714,-30.602361)"><flowRegion
         id="flowRegion130"
         style="font-size:13.33333302px;text-align:center;text-anchor:middle"><rect
           id="rect132"
           width="100.0051"
           height="51.517769"
           x="280.31732"
           y="273.48648"
           style="font-size:13.33333302px;text-align:center;text-anchor:middle" /></flowRegion><flowPara
         id="flowPara134">Commit message:</flowPara><flowPara
         id="flowPara136">&quot;Added milk&quot;</flowPara></flowRoot>    <flowRoot
       xml:space="preserve"
       id="flowRoot128-3"
       style="font-style:normal;font-weight:normal;font-size:13.33333302px;line-height:1.25;font-family:sans-serif;text-align:center;letter-spacing:0px;word-spacing:0px;text-anchor:middle;fill:#000000;fill-opacity:1;stroke:none"
       transform="matrix(0.26458333,0,0,0.26458333,120.40679,-15.570206)"><flowRegion
         id="flowRegion130-6"
         style="font-size:13.33333302px;text-align:center;text-anchor:middle"><rect
           id="rect132-7"
           width="100.0051"
           height="51.517769"
           x="280.31732"
           y="273.48648"
           style="font-size:13.33333302px;text-align:center;text-anchor:middle" /></flowRegion><flowPara
         id="flowPara134-5">Commit message:</flowPara><flowPara
         id="flowPara136-3">&quot;Added soup&quot;</flowPara></flowRoot>    <flowRoot
       xml:space="preserve"
       id="flowRoot128-5"
       style="font-style:normal;font-weight:normal;font-size:13.33333302px;line-height:1.25;font-family:sans-serif;text-align:center;letter-spacing:0px;word-spacing:0px;text-anchor:middle;fill:#000000;fill-opacity:1;stroke:none"
       transform="matrix(0.26458333,0,0,0.26458333,97.822517,-20.113787)"><flowRegion
         id="flowRegion130-62"
         style="font-size:13.33333302px;text-align:center;text-anchor:middle"><rect
           id="rect132-9"
           width="100.0051"
           height="51.517769"
           x="280.31732"
           y="273.48648"
           style="font-size:13.33333302px;text-align:center;text-anchor:middle" /></flowRegion><flowPara
         id="flowPara134-1">Commit message:</flowPara><flowPara
         id="flowPara136-2">&quot;Added juice&quot;</flowPara></flowRoot>    <flowRoot
       xml:space="preserve"
       id="flowRoot128-7"
       style="font-style:normal;font-weight:normal;font-size:13.33333302px;line-height:1.25;font-family:sans-serif;text-align:center;letter-spacing:0px;word-spacing:0px;text-anchor:middle;fill:#000000;fill-opacity:1;stroke:none"
       transform="matrix(0.26458333,0,0,0.26458333,75.772781,-25.058274)"><flowRegion
         id="flowRegion130-0"
         style="font-size:13.33333302px;text-align:center;text-anchor:middle"><rect
           id="rect132-93"
           width="100.0051"
           height="51.517769"
           x="280.31732"
           y="273.48648"
           style="font-size:13.33333302px;text-align:center;text-anchor:middle" /></flowRegion><flowPara
         id="flowPara134-6">Commit message:</flowPara><flowPara
         id="flowPara136-0">&quot;Added eggs&quot;</flowPara></flowRoot>    <g
       id="g4888"
       transform="matrix(0.20104428,0,0,0.19259156,95.894834,-9.4591582)"
       clip-path="url(#clipPath4892)">
      <g
         id="advanced_x5F_undoing_x5F_7">
        <path
           id="path4833"
           d="M 248,111.7 H 535.7"
           class="st4"
           inkscape:connector-curvature="0"
           style="fill:#ffffff;stroke:#404040;stroke-width:4;stroke-linecap:round;stroke-linejoin:round;stroke-miterlimit:10" />
        <circle
           id="circle4835"
           r="21"
           cy="111.7"
           cx="227"
           class="st4"
           style="fill:#ffffff;stroke:#404040;stroke-width:4;stroke-linecap:round;stroke-linejoin:round;stroke-miterlimit:10" />
        <circle
           id="circle4837"
           r="21"
           cy="111.7"
           cx="446.79999"
           class="st4"
           style="fill:#ffffff;stroke:#404040;stroke-width:4;stroke-linecap:round;stroke-linejoin:round;stroke-miterlimit:10" />
        <circle
           id="circle4839"
           r="21"
           cy="111.7"
           cx="336.89999"
           class="st4"
           style="fill:#ffffff;stroke:#404040;stroke-width:4;stroke-linecap:round;stroke-linejoin:round;stroke-miterlimit:10" />
        <circle
           id="circle4841"
           r="21"
           cy="111.7"
           cx="556.70001"
           class="st29"
           style="fill:#59afe1;stroke:#404040;stroke-width:4;stroke-linejoin:round;stroke-miterlimit:10" />
        <path
           id="path4843"
           d="m 331.7,8.1 c 2,0 3.2,1.2 3.2,2.9 0,1.1 -0.7,2 -1.6,2.3 1.2,0.3 1.9,1.4 1.9,2.6 0,1.7 -1.3,2.9 -3.3,2.9 h -3.7 V 8.1 Z m -0.2,4.7 c 1.2,0 1.9,-0.7 1.9,-1.7 0,-1 -0.7,-1.7 -2,-1.7 h -1.8 v 3.4 z m 0.2,4.7 c 1.2,0 2,-0.7 2,-1.7 0,-1 -0.6,-1.7 -1.9,-1.7 h -2.1 v 3.4 z m 12.5,-0.8 c -0.4,1.3 -1.6,2.3 -3.2,2.3 -1.9,0 -3.6,-1.4 -3.6,-3.9 0,-2.3 1.6,-3.8 3.5,-3.8 2.2,0 3.5,1.5 3.5,3.8 v 0.4 H 339 c 0,1.3 1,2.2 2.2,2.2 1.2,0 1.8,-0.6 2,-1.5 z m -1.4,-2.3 c 0,-1 -0.7,-1.8 -2,-1.8 -1.2,0 -1.9,0.9 -2,1.8 z m 5.9,-1.6 v 5.9 h -1.5 v -5.9 h -1.3 v -1.3 h 1.3 v -1.2 c 0,-1.6 1.1,-2.5 2.4,-2.5 0.5,0 0.8,0.1 0.8,0.2 v 1.3 c -0.1,0 -0.3,-0.1 -0.6,-0.1 -0.5,0 -1.1,0.2 -1.1,1.2 v 1.1 h 1.7 v 1.3 z m 10.5,2.4 c 0,2.2 -1.5,3.8 -3.7,3.8 -2.2,0 -3.7,-1.6 -3.7,-3.8 0,-2.2 1.5,-3.8 3.7,-3.8 2.2,-0.1 3.7,1.6 3.7,3.8 z m -1.4,0 c 0,-1.7 -1.1,-2.6 -2.2,-2.6 -1.2,0 -2.2,0.9 -2.2,2.6 0,1.7 1,2.6 2.2,2.6 1.1,-0.1 2.2,-1 2.2,-2.6 z m 7.9,-2.2 h -0.6 c -1.2,0 -2,0.6 -2,2.2 v 3.6 h -1.4 v -7.2 h 1.4 v 1.3 c 0.5,-1.1 1.4,-1.4 2.2,-1.4 h 0.5 V 13 Z m 8.5,3.7 c -0.4,1.3 -1.6,2.3 -3.2,2.3 -1.9,0 -3.6,-1.4 -3.6,-3.9 0,-2.3 1.6,-3.8 3.5,-3.8 2.2,0 3.5,1.5 3.5,3.8 v 0.4 H 369 c 0,1.3 1,2.2 2.2,2.2 1.2,0 1.8,-0.6 2,-1.5 z m -1.4,-2.3 c 0,-1 -0.7,-1.8 -2,-1.8 -1.2,0 -1.9,0.9 -2,1.8 z m 10.4,-2.8 h 1.6 v 1.3 h -1.6 v 3.8 c 0,0.7 0.3,1 1,1 0.2,0 0.4,0 0.6,-0.1 v 1.2 c -0.1,0 -0.5,0.1 -1,0.1 -1.2,0 -2,-0.8 -2,-2.1 v -4 h -1.4 v -1.3 h 0.4 c 0.8,0 1.1,-0.5 1.1,-1.1 V 9.3 h 1.3 z m 5.6,7.2 h -1.4 V 7.9 h 1.4 v 4.5 c 0.5,-0.8 1.4,-1.1 2.2,-1.1 1.7,0 2.6,1.2 2.6,2.9 v 4.6 h -1.4 v -4.3 c 0,-1 -0.4,-1.8 -1.7,-1.8 -1.1,0 -1.6,0.8 -1.7,1.9 z m 14,-2.1 c -0.4,1.3 -1.6,2.3 -3.2,2.3 -1.9,0 -3.6,-1.4 -3.6,-3.9 0,-2.3 1.6,-3.8 3.5,-3.8 2.2,0 3.5,1.5 3.5,3.8 v 0.4 h -5.4 c 0,1.3 1,2.2 2.2,2.2 1.2,0 1.8,-0.6 2,-1.5 z m -1.4,-2.3 c 0,-1 -0.7,-1.8 -2,-1.8 -1.2,0 -1.9,0.9 -2,1.8 z m 11.8,0 h -1.6 v 4.3 h -1.5 V 8.1 h 4 c 2,0 3.3,1.4 3.3,3.2 0,1.5 -1,2.7 -2.6,3 l 2.5,4.5 h -1.7 z m 0.6,-1.3 c 1.2,0 2,-0.7 2,-1.8 0,-1.1 -0.8,-1.8 -2,-1.8 h -2.2 v 3.6 z m 12.2,3.6 c -0.4,1.3 -1.6,2.3 -3.2,2.3 -1.9,0 -3.6,-1.4 -3.6,-3.9 0,-2.3 1.6,-3.8 3.5,-3.8 2.2,0 3.5,1.5 3.5,3.8 v 0.4 h -5.4 c 0,1.3 1,2.2 2.2,2.2 1.2,0 1.8,-0.6 2,-1.5 z m -1.5,-2.3 c 0,-1 -0.7,-1.8 -2,-1.8 -1.2,0 -1.9,0.9 -2,1.8 z m 7.2,4.4 h -1.4 l -2.9,-7.2 h 1.6 l 2.1,5.6 2.1,-5.6 h 1.5 z m 11,-2.1 c -0.4,1.3 -1.6,2.3 -3.2,2.3 -1.9,0 -3.6,-1.4 -3.6,-3.9 0,-2.3 1.6,-3.8 3.5,-3.8 2.2,0 3.5,1.5 3.5,3.8 v 0.4 h -5.4 c 0,1.3 1,2.2 2.2,2.2 1.2,0 1.8,-0.6 2,-1.5 z m -1.4,-2.3 c 0,-1 -0.7,-1.8 -2,-1.8 -1.2,0 -1.9,0.9 -2,1.8 z m 8,-1.4 h -0.6 c -1.2,0 -2,0.6 -2,2.2 v 3.6 h -1.4 v -7.2 h 1.4 v 1.3 c 0.5,-1.1 1.4,-1.4 2.2,-1.4 h 0.5 V 13 Z m 4.6,-1.4 h 1.6 v 1.3 h -1.6 v 3.8 c 0,0.7 0.3,1 1,1 0.2,0 0.4,0 0.6,-0.1 v 1.2 c -0.1,0 -0.5,0.1 -1,0.1 -1.2,0 -2,-0.8 -2,-2.1 v -4 h -1.4 v -1.3 h 0.4 c 0.8,0 1.1,-0.5 1.1,-1.1 V 9.3 h 1.3 z"
           class="st25"
           inkscape:connector-curvature="0"
           style="fill:#999999" />
        <path
           id="path4845"
           d="M 128.9,234.7 H 670.3"
           class="st24"
           inkscape:connector-curvature="0"
           style="fill:none;stroke:#cccccc;stroke-linecap:round;stroke-linejoin:round;stroke-miterlimit:10" />
      </g>
      <g
         id="advanced_x5F_undoing_x5F_8">
        <path
           id="path4848"
           d="m 347.4,342.2 h -4.7 l -1.1,3 H 340 l 4.2,-10.6 h 1.7 l 4.2,10.6 h -1.6 z m -4.1,-1.4 h 3.7 l -1.8,-4.8 z m 10.9,-1.6 v 5.9 h -1.5 v -5.9 h -1.3 v -1.3 h 1.3 v -1.2 c 0,-1.6 1.1,-2.5 2.4,-2.5 0.5,0 0.8,0.1 0.8,0.2 v 1.3 c -0.1,0 -0.3,-0.1 -0.6,-0.1 -0.5,0 -1.1,0.2 -1.1,1.2 v 1.1 h 1.7 v 1.3 z m 5.9,-1.3 h 1.6 v 1.3 h -1.6 v 3.8 c 0,0.7 0.3,1 1,1 0.2,0 0.4,0 0.6,-0.1 v 1.2 c -0.1,0 -0.5,0.1 -1,0.1 -1.2,0 -2,-0.8 -2,-2.1 v -4 h -1.4 v -1.3 h 0.4 c 0.8,0 1.1,-0.5 1.1,-1.1 v -1.2 h 1.3 z m 10.4,5.2 c -0.4,1.3 -1.6,2.3 -3.2,2.3 -1.9,0 -3.6,-1.4 -3.6,-3.9 0,-2.3 1.6,-3.8 3.4,-3.8 2.2,0 3.5,1.5 3.5,3.8 v 0.4 h -5.4 c 0,1.3 1,2.2 2.2,2.2 1.2,0 1.8,-0.6 2,-1.5 z m -1.5,-2.3 c 0,-1 -0.7,-1.8 -2,-1.8 -1.2,0 -1.9,0.9 -2,1.8 z m 8.1,-1.5 h -0.6 c -1.2,0 -2,0.6 -2,2.2 v 3.6 h -1.4 v -7.2 h 1.4 v 1.3 c 0.5,-1.1 1.4,-1.4 2.2,-1.4 h 0.5 v 1.5 z m 8.6,-1.4 h 1.6 v 1.3 h -1.6 v 3.8 c 0,0.7 0.3,1 1,1 0.2,0 0.4,0 0.6,-0.1 v 1.2 c -0.1,0 -0.5,0.1 -1,0.1 -1.2,0 -2,-0.8 -2,-2.1 v -4 h -1.4 v -1.3 h 0.4 c 0.8,0 1.1,-0.5 1.1,-1.1 v -1.2 h 1.3 z m 5.6,7.2 h -1.4 v -10.9 h 1.4 v 4.5 c 0.5,-0.8 1.4,-1.1 2.2,-1.1 1.7,0 2.6,1.2 2.6,2.9 v 4.6 h -1.4 v -4.3 c 0,-1 -0.4,-1.8 -1.7,-1.8 -1.1,0 -1.6,0.8 -1.7,1.9 z m 14.1,-2 c -0.4,1.3 -1.6,2.3 -3.2,2.3 -1.9,0 -3.6,-1.4 -3.6,-3.9 0,-2.3 1.6,-3.8 3.5,-3.8 2.2,0 3.5,1.5 3.5,3.8 v 0.4 h -5.4 c 0,1.3 1,2.2 2.2,2.2 1.2,0 1.8,-0.6 2,-1.5 z m -1.5,-2.3 c 0,-1 -0.7,-1.8 -2,-1.8 -1.2,0 -1.9,0.9 -2,1.8 z m 11.8,0 h -1.6 v 4.3 h -1.5 v -10.6 h 4 c 2,0 3.3,1.4 3.3,3.2 0,1.5 -1,2.7 -2.6,3 l 2.5,4.5 h -1.7 z m 0.6,-1.3 c 1.2,0 2,-0.7 2,-1.8 0,-1.1 -0.8,-1.8 -2,-1.8 h -2.2 v 3.6 z m 12.2,3.6 c -0.4,1.3 -1.6,2.3 -3.2,2.3 -1.9,0 -3.6,-1.4 -3.6,-3.9 0,-2.3 1.6,-3.8 3.5,-3.8 2.2,0 3.5,1.5 3.5,3.8 v 0.4 h -5.4 c 0,1.3 1,2.2 2.2,2.2 1.2,0 1.8,-0.6 2,-1.5 z m -1.4,-2.3 c 0,-1 -0.7,-1.8 -2,-1.8 -1.2,0 -1.9,0.9 -2,1.8 z m 7.1,4.3 h -1.4 l -2.9,-7.2 h 1.6 l 2.1,5.6 2.1,-5.6 h 1.5 z m 11.1,-2 c -0.4,1.3 -1.6,2.3 -3.2,2.3 -1.9,0 -3.6,-1.4 -3.6,-3.9 0,-2.3 1.6,-3.8 3.4,-3.8 2.2,0 3.5,1.5 3.5,3.8 v 0.4 H 440 c 0,1.3 1,2.2 2.2,2.2 1.2,0 1.8,-0.6 2,-1.5 z m -1.5,-2.3 c 0,-1 -0.7,-1.8 -2,-1.8 -1.2,0 -1.9,0.9 -2,1.8 z m 8.1,-1.5 h -0.6 c -1.2,0 -2,0.6 -2,2.2 v 3.6 h -1.4 v -7.2 h 1.4 v 1.3 c 0.5,-1.1 1.4,-1.4 2.2,-1.4 h 0.5 v 1.5 z m 4.5,-1.4 h 1.6 v 1.3 h -1.6 v 3.8 c 0,0.7 0.3,1 1,1 0.2,0 0.4,0 0.6,-0.1 v 1.2 c -0.1,0 -0.5,0.1 -1,0.1 -1.2,0 -2,-0.8 -2,-2.1 v -4 h -1.4 v -1.3 h 0.4 c 0.8,0 1.1,-0.5 1.1,-1.1 v -1.2 h 1.3 z"
           class="st25"
           inkscape:connector-curvature="0"
           style="fill:#999999" />
        <path
           id="path4850"
           d="M 255.8,479.7 H 543.5"
           class="st4"
           inkscape:connector-curvature="0"
           style="fill:#ffffff;stroke:#404040;stroke-width:4;stroke-linecap:round;stroke-linejoin:round;stroke-miterlimit:10" />
        <circle
           id="circle4852"
           r="21"
           cy="479.70001"
           cx="234.8"
           class="st4"
           style="fill:#ffffff;stroke:#404040;stroke-width:4;stroke-linecap:round;stroke-linejoin:round;stroke-miterlimit:10" />
        <circle
           id="circle4854"
           r="21"
           cy="479.70001"
           cx="564.5"
           class="st29"
           style="fill:#59afe1;stroke:#404040;stroke-width:4;stroke-linejoin:round;stroke-miterlimit:10" />
        <circle
           id="circle4856"
           r="21"
           cy="479.70001"
           cx="344.70001"
           class="st4"
           style="fill:#ffffff;stroke:#404040;stroke-width:4;stroke-linecap:round;stroke-linejoin:round;stroke-miterlimit:10" />
        <path
           id="path4858"
           d="m 473.6,500.7 h -38 c -1.1,0 -2,-0.9 -2,-2 v -38 c 0,-1.1 0.9,-2 2,-2 h 38 c 1.1,0 2,0.9 2,2 v 38 c 0,1.1 -0.9,2 -2,2 z"
           class="st39"
           inkscape:connector-curvature="0"
           style="fill:#e24b88;stroke:#404040;stroke-width:4;stroke-linecap:round;stroke-linejoin:round;stroke-miterlimit:10" />
        <path
           id="path4860"
           d="M 465.7,468.8 454.9,479.7 444,468.8 m 0,21.8 10.9,-10.9 10.8,10.9 m 69.3,-58 h 15.4 v -15.4 m -2.1,13.1 C 538.3,420.8 524.8,415 510,415 c -14.8,0 -28.4,5.8 -38.3,15.3"
           class="st11"
           inkscape:connector-curvature="0"
           style="fill:none;stroke:#404040;stroke-width:4;stroke-linecap:round;stroke-linejoin:round;stroke-miterlimit:10" />
      </g>
    </g>
    <flowRoot
       xml:space="preserve"
       id="flowRoot4963"
       style="font-style:normal;font-weight:normal;font-size:13.33333302px;line-height:1.25;font-family:sans-serif;letter-spacing:0px;word-spacing:0px;fill:#000000;fill-opacity:1;stroke:none"
       transform="matrix(0.26458333,0,0,0.26458333,125.95158,1.378041)"><flowRegion
         id="flowRegion4965"
         style="font-size:13.33333302px"><rect
           id="rect4967"
           width="135.86552"
           height="94.954338"
           x="-73.236061"
           y="67.92997"
           style="font-size:13.33333302px" /></flowRegion><flowPara
         id="flowPara4969"></flowPara></flowRoot>    <flowRoot
       xml:space="preserve"
       id="flowRoot4990"
       style="font-style:normal;font-weight:normal;font-size:40px;line-height:1.25;font-family:sans-serif;letter-spacing:0px;word-spacing:0px;fill:#000000;fill-opacity:1;stroke:none"
       transform="matrix(0.26458333,0,0,0.26458333,226.14411,27.738175)"><flowRegion
         id="flowRegion4992"><rect
           id="rect4994"
           width="86.873116"
           height="108.5914"
           x="-427.79959"
           y="1.010142" /></flowRegion><flowPara
         id="flowPara4996"></flowPara></flowRoot>    <flowRoot
       xml:space="preserve"
       id="flowRoot4998"
       style="font-style:normal;font-weight:normal;font-size:13.33333302px;line-height:1.25;font-family:sans-serif;letter-spacing:0px;word-spacing:0px;fill:#000000;fill-opacity:1;stroke:none"
       transform="matrix(0.26458333,0,0,0.26458333,226.14411,27.738175)"><flowRegion
         id="flowRegion5000"
         style="font-size:13.33333302px"><rect
           id="rect5002"
           width="84.852814"
           height="59.093925"
           x="-427.29453"
           y="-40.406113"
           style="font-size:13.33333302px" /></flowRegion><flowPara
         id="flowPara5004"></flowPara></flowRoot>    <text
       xml:space="preserve"
       style="font-style:normal;font-weight:normal;font-size:10.58333302px;line-height:1.25;font-family:sans-serif;letter-spacing:0px;word-spacing:0px;fill:#000000;fill-opacity:1;stroke:none;stroke-width:0.26458332"
       x="148.659"
       y="101.61324"
       id="text5008"><tspan
         sodipodi:role="line"
         id="tspan5006"
         x="148.659"
         y="110.97701"
         style="stroke-width:0.26458332" /></text>
    <g
       id="g5153">
      <g
         transform="translate(21.782467,-3.6081386)"
         id="g5045">
        <flowRoot
           xml:space="preserve"
           id="flowRoot128-6"
           style="font-style:normal;font-weight:normal;font-size:13.33333302px;line-height:1.25;font-family:sans-serif;text-align:start;letter-spacing:0px;word-spacing:0px;text-anchor:start;fill:#000000;fill-opacity:1;stroke:none"
           transform="matrix(0.26458333,0,0,0.26458333,39.637496,-47.10374)"><flowRegion
             id="flowRegion130-2"
             style="font-size:13.33333302px;text-align:start;text-anchor:start"><rect
               id="rect132-6"
               width="100.0051"
               height="51.517769"
               x="280.31732"
               y="273.48648"
               style="font-size:13.33333302px;text-align:start;text-anchor:start" /></flowRegion><flowPara
             id="flowPara134-18">Milk</flowPara><flowPara
             id="flowPara136-7" /></flowRoot>        <rect
           style="fill:none;fill-opacity:1;stroke:#000000;stroke-width:0.26458332;stroke-opacity:1"
           id="rect5037"
           width="16.036171"
           height="22.584274"
           x="111.75275"
           y="21.457338" />
      </g>
    </g>
    <g
       id="g5162">
      <flowRoot
         transform="matrix(0.26458333,0,0,0.26458333,83.469705,-50.377791)"
         style="font-style:normal;font-weight:normal;font-size:13.33333302px;line-height:1.25;font-family:sans-serif;text-align:start;letter-spacing:0px;word-spacing:0px;text-anchor:start;fill:#000000;fill-opacity:1;stroke:none"
         id="flowRoot128-6-2"
         xml:space="preserve"><flowRegion
           style="font-size:13.33333302px;text-align:start;text-anchor:start"
           id="flowRegion130-2-0"><rect
             style="font-size:13.33333302px;text-align:start;text-anchor:start"
             y="273.48648"
             x="280.31732"
             height="51.517769"
             width="100.0051"
             id="rect132-6-2" /></flowRegion><flowPara
           id="flowPara134-18-3">Milk</flowPara><flowPara
           id="flowPara5134">Eggs</flowPara><flowPara
           id="flowPara136-7-7" /></flowRoot>      <rect
         y="18.183289"
         x="155.58496"
         height="22.584274"
         width="16.036171"
         id="rect5037-5"
         style="fill:none;fill-opacity:1;stroke:#000000;stroke-width:0.26458332;stroke-opacity:1" />
    </g>
    <g
       id="g5172">
      <flowRoot
         transform="matrix(0.26458333,0,0,0.26458333,105.78671,-50.110521)"
         style="font-style:normal;font-weight:normal;font-size:13.33333302px;line-height:1.25;font-family:sans-serif;text-align:start;letter-spacing:0px;word-spacing:0px;text-anchor:start;fill:#000000;fill-opacity:1;stroke:none"
         id="flowRoot128-6-28"
         xml:space="preserve"><flowRegion
           style="font-size:13.33333302px;text-align:start;text-anchor:start"
           id="flowRegion130-2-9"><rect
             style="font-size:13.33333302px;text-align:start;text-anchor:start"
             y="273.48648"
             x="280.31732"
             height="51.517769"
             width="100.0051"
             id="rect132-6-7" /></flowRegion><flowPara
           id="flowPara134-18-36">Milk</flowPara><flowPara
           id="flowPara5136">Eggs</flowPara><flowPara
           id="flowPara5138">Juice</flowPara><flowPara
           id="flowPara136-7-1" /></flowRoot>      <rect
         y="18.450558"
         x="177.90196"
         height="22.584274"
         width="16.036171"
         id="rect5037-2"
         style="fill:none;fill-opacity:1;stroke:#000000;stroke-width:0.26458332;stroke-opacity:1" />
    </g>
    <g
       id="g5183">
      <flowRoot
         transform="matrix(0.26458333,0,0,0.26458333,127.56918,-49.843251)"
         style="font-style:normal;font-weight:normal;font-size:13.33333302px;line-height:1.25;font-family:sans-serif;text-align:start;letter-spacing:0px;word-spacing:0px;text-anchor:start;fill:#000000;fill-opacity:1;stroke:none"
         id="flowRoot128-6-1"
         xml:space="preserve"><flowRegion
           style="font-size:13.33333302px;text-align:start;text-anchor:start"
           id="flowRegion130-2-94"><rect
             style="font-size:13.33333302px;text-align:start;text-anchor:start"
             y="273.48648"
             x="280.31732"
             height="88.893402"
             width="101.01525"
             id="rect132-6-78" /></flowRegion><flowPara
           id="flowPara134-18-4">Milk</flowPara><flowPara
           id="flowPara5140">Eggs </flowPara><flowPara
           id="flowPara5142">Juice</flowPara><flowPara
           id="flowPara5144">Soup</flowPara><flowPara
           id="flowPara136-7-5" /></flowRoot>      <rect
         y="18.717827"
         x="199.68443"
         height="22.584274"
         width="16.036171"
         id="rect5037-0"
         style="fill:none;fill-opacity:1;stroke:#000000;stroke-width:0.26458332;stroke-opacity:1" />
    </g>
    <path
       style="fill:none;stroke:#000000;stroke-width:0.59664261;stroke-linecap:butt;stroke-linejoin:miter;stroke-miterlimit:4;stroke-dasharray:none;stroke-opacity:1;marker-end:url(#Arrow1Lend)"
       d="m 167.49151,-0.39284089 18.89104,0.001929"
       id="path5185"
       inkscape:connector-curvature="0" />
  </g>
  <style
     id="style4831">.st0{display:none;} .st1{display:inline;} .st2{fill:#FFFFFF;} .st3{fill:none;stroke:#9882CE;stroke-width:4;stroke-miterlimit:10;} .st4{fill:#FFFFFF;stroke:#404040;stroke-width:4;stroke-linecap:round;stroke-linejoin:round;stroke-miterlimit:10;} .st5{fill:#FFFFFF;stroke:#404040;stroke-width:4;stroke-miterlimit:10;} .st6{fill:#B3E3FF;stroke:#404040;stroke-width:4;stroke-miterlimit:10;} .st7{fill:#B18BE8;stroke:#404040;stroke-width:4;stroke-miterlimit:10;} .st8{fill:#FFFFFF;stroke:#404040;stroke-width:6;stroke-miterlimit:10;} .st9{fill:#B3E3FF;stroke:#404040;stroke-width:6;stroke-miterlimit:10;} .st10{fill:#404040;} .st11{fill:none;stroke:#404040;stroke-width:4;stroke-linecap:round;stroke-linejoin:round;stroke-miterlimit:10;} .st12{fill:#B18BE8;stroke:#404040;stroke-width:4;stroke-linecap:round;stroke-linejoin:round;stroke-miterlimit:10;} .st13{fill:#444444;} .st14{fill:none;stroke:#404040;stroke-width:4;stroke-miterlimit:10;} .st15{fill:#4ED1A1;stroke:#404040;stroke-width:4;stroke-miterlimit:10;} .st16{fill:none;stroke:#CCCCCC;stroke-width:7;stroke-linecap:round;stroke-linejoin:round;stroke-miterlimit:10;} .st17{fill:#FFFFFF;stroke:#CCCCCC;stroke-width:7;stroke-linecap:round;stroke-linejoin:round;stroke-miterlimit:10;} .st18{fill:none;stroke:#404040;stroke-width:7;stroke-miterlimit:10;} .st19{fill:#B3E3FF;stroke:#404040;stroke-width:7;stroke-miterlimit:10;} .st20{fill:none;stroke:#CCCCCC;stroke-width:8;stroke-linecap:round;stroke-miterlimit:10;} .st21{fill:none;stroke:#404040;stroke-width:8;stroke-linecap:round;stroke-miterlimit:10;} .st22{fill:#FFFFFF;stroke:#404040;stroke-width:4;stroke-linejoin:round;stroke-miterlimit:10;} .st23{fill:#B3E3FF;stroke:#404040;stroke-width:4;stroke-linejoin:round;stroke-miterlimit:10;} .st24{fill:none;stroke:#CCCCCC;stroke-linecap:round;stroke-linejoin:round;stroke-miterlimit:10;} .st25{fill:#999999;} .st26{fill:#4ED1A1;stroke:#404040;stroke-width:4;stroke-linecap:round;stroke-linejoin:round;stroke-miterlimit:10;} .st27{fill:#4CD3D6;stroke:#404040;stroke-width:4;stroke-linejoin:round;stroke-miterlimit:10;} .st28{fill:none;stroke:#59AFE1;stroke-width:4;stroke-miterlimit:10;} .st29{fill:#59AFE1;stroke:#404040;stroke-width:4;stroke-linejoin:round;stroke-miterlimit:10;} .st30{fill:none;stroke:#404040;stroke-width:8;stroke-linecap:round;stroke-linejoin:round;stroke-miterlimit:10;stroke-dasharray:0,30;} .st31{fill:#FFFFFF;stroke:#59AFE1;stroke-width:4;stroke-miterlimit:10;} .st32{fill:#FC8363;stroke:#404040;stroke-width:4;stroke-linecap:round;stroke-linejoin:round;stroke-miterlimit:10;} .st33{fill:#CCCCCC;stroke:#404040;stroke-width:4;stroke-miterlimit:10;} .st34{fill:#FFFFFF;stroke:#6693ED;stroke-width:4;stroke-miterlimit:10;} .st35{fill:none;stroke:#A97CDD;stroke-width:4;stroke-linecap:round;stroke-linejoin:round;stroke-miterlimit:10;} .st36{fill:none;stroke:#B3E3FF;stroke-width:4;stroke-linecap:round;stroke-linejoin:round;stroke-miterlimit:10;} .st37{fill:none;stroke:#4ED1A1;stroke-width:4;stroke-linecap:round;stroke-miterlimit:10;} .st38{fill:none;stroke:#4ED1A1;stroke-width:4;stroke-linecap:round;stroke-linejoin:round;stroke-miterlimit:10;} .st39{fill:#E24B88;stroke:#404040;stroke-width:4;stroke-linecap:round;stroke-linejoin:round;stroke-miterlimit:10;} .st40{fill:none;stroke:#DEEFF8;stroke-width:4;stroke-miterlimit:10;} .st41{fill:none;stroke:#CCCCCC;stroke-width:4;stroke-linecap:round;stroke-linejoin:round;} .st42{fill:none;stroke:#CCCCCC;stroke-width:4;stroke-linecap:round;stroke-linejoin:round;stroke-dasharray:0,14.3051;} .st43{fill:none;stroke:#CCCCCC;stroke-width:4;stroke-linecap:round;stroke-linejoin:round;stroke-dasharray:0,14.1689;} .st44{fill:none;stroke:#CCCCCC;stroke-width:4;stroke-linecap:round;stroke-linejoin:round;stroke-dasharray:0,13.9788;} .st45{fill:none;stroke:#CCCCCC;stroke-width:4;stroke-linecap:round;stroke-linejoin:round;stroke-dasharray:0,14.7877;} .st46{fill:none;stroke:#CCCCCC;stroke-width:4;stroke-linecap:round;stroke-linejoin:round;stroke-dasharray:0,14.9632;} .st47{fill:#B3E3FF;stroke:#404040;stroke-width:4;stroke-linecap:round;stroke-linejoin:round;stroke-miterlimit:10;} .st48{fill:none;stroke:#CCCCCC;stroke-width:4;stroke-linecap:round;stroke-linejoin:round;stroke-dasharray:0,12.543;} .st49{fill:none;stroke:#CCCCCC;stroke-width:4;stroke-linecap:round;stroke-linejoin:round;stroke-dasharray:0,13.6844;} .st50{fill:none;stroke:#CCCCCC;stroke-width:4;stroke-linecap:round;stroke-linejoin:round;stroke-dasharray:0,13.7717;} .st51{fill:none;stroke:#CCCCCC;stroke-width:4;stroke-linecap:round;stroke-linejoin:round;stroke-dasharray:0,13.6492;} .st52{fill:none;stroke:#CCCCCC;stroke-width:4;stroke-linecap:round;stroke-linejoin:round;stroke-dasharray:0,13.907;} .st53{fill:#4CD3D6;stroke:#404040;stroke-width:4;stroke-linecap:round;stroke-linejoin:round;stroke-miterlimit:10;} .st54{fill:none;stroke:#CCCCCC;stroke-width:4;stroke-linecap:round;stroke-linejoin:round;stroke-dasharray:0,14.9858;} .st55{fill:none;stroke:#CCCCCC;stroke-width:4;stroke-linecap:round;stroke-linejoin:round;stroke-dasharray:0,14.0118;} .st56{fill:none;stroke:#CCCCCC;stroke-width:4;stroke-linecap:round;stroke-linejoin:round;stroke-dasharray:0,14.1243;} .st57{fill:none;} .st58{fill:#FFFFFF;stroke:#404040;stroke-width:7;stroke-linecap:round;stroke-linejoin:round;stroke-miterlimit:10;} .st59{fill:#59AFE1;stroke:#404040;stroke-width:7;stroke-linejoin:round;stroke-miterlimit:10;} .st60{fill:#E24B88;stroke:#404040;stroke-width:7;stroke-linecap:round;stroke-linejoin:round;stroke-miterlimit:10;} .st61{fill:none;stroke:#404040;stroke-width:7;stroke-linecap:round;stroke-linejoin:round;stroke-miterlimit:10;} .st62{fill:none;stroke:#CCCCCC;stroke-width:4;stroke-linecap:round;stroke-linejoin:round;stroke-miterlimit:10;} .st63{fill:#FFFFFF;stroke:#CCCCCC;stroke-width:4;stroke-linecap:round;stroke-linejoin:round;stroke-miterlimit:10;} .st64{fill:#F5F5F5;} .st65{fill:#3873AE;} .st66{fill:#75706C;} .st67{fill:none;stroke:#B3E3FF;stroke-width:4;stroke-miterlimit:10;} .st68{fill:#6F6F6F;} .st69{fill:none;stroke:#6F6F6F;stroke-width:2;stroke-miterlimit:10;} .st70{fill:none;stroke:#6F6F6F;stroke-width:3;stroke-miterlimit:10;}</style>
</svg>
